<?xml version="1.0" encoding="UTF-8" standalone="no"?>
<!DOCTYPE svg PUBLIC "-//W3C//DTD SVG 1.1//EN"
 "http://www.w3.org/Graphics/SVG/1.1/DTD/svg11.dtd">
<!-- Generated by graphviz version 2.40.1 (20161225.0304)
 -->
<!-- Title: dependencies Pages: 1 -->
<svg width="1160pt" height="211pt"
 viewBox="0.00 0.00 1160.00 211.00" xmlns="http://www.w3.org/2000/svg" xmlns:xlink="http://www.w3.org/1999/xlink">
<g id="graph0" class="graph" transform="scale(1 1) rotate(0) translate(4 207)">
<title>dependencies</title>
<polygon fill="#ffffff" stroke="transparent" points="-4,4 -4,-207 1156,-207 1156,4 -4,4"/>
<text text-anchor="start" x="555.0091" y="-42.4" font-family="sans-serif" font-weight="bold" font-size="14.00" fill="#000000">Legend</text>
<polygon fill="#ffffb3" stroke="transparent" points="342,-10 342,-30 362,-30 362,-10 342,-10"/>
<text text-anchor="start" x="365.629" y="-15.4" font-family="sans-serif" font-size="14.00" fill="#000000"> &#160;Declarations</text>
<polygon fill="#8dd3c7" stroke="transparent" points="455,-10 455,-30 475,-30 475,-10 455,-10"/>
<text text-anchor="start" x="478.7251" y="-15.4" font-family="sans-serif" font-size="14.00" fill="#000000"> &#160;Module</text>
<polygon fill="#80b1d3" stroke="transparent" points="541,-10 541,-30 561,-30 561,-10 541,-10"/>
<text text-anchor="start" x="564.7812" y="-15.4" font-family="sans-serif" font-size="14.00" fill="#000000"> &#160;Bootstrap</text>
<polygon fill="#fdb462" stroke="transparent" points="638,-10 638,-30 658,-30 658,-10 638,-10"/>
<text text-anchor="start" x="661.6732" y="-15.4" font-family="sans-serif" font-size="14.00" fill="#000000"> &#160;Providers</text>
<polygon fill="#fb8072" stroke="transparent" points="734,-10 734,-30 754,-30 754,-10 734,-10"/>
<text text-anchor="start" x="757.7258" y="-15.4" font-family="sans-serif" font-size="14.00" fill="#000000"> &#160;Exports</text>
<g id="clust1" class="cluster">
<title>cluster_PrestationModule</title>
<polygon fill="none" stroke="#000000" stroke-dasharray="1,5" points="8,-70 8,-195 1144,-195 1144,-70 8,-70"/>
</g>
<g id="clust2" class="cluster">
<title>cluster_PrestationModule_declarations</title>
<polygon fill="none" stroke="#000000" points="317,-78 317,-130 1136,-130 1136,-78 317,-78"/>
</g>
<g id="clust8" class="cluster">
<title>cluster_PrestationModule_imports</title>
<polygon fill="none" stroke="#000000" points="16,-78 16,-130 309,-130 309,-78 16,-78"/>
</g>
<!-- AddPrestationComponent -->
<g id="node1" class="node">
<title>AddPrestationComponent</title>
<polygon fill="#ffffb3" stroke="#000000" points="1127.9284,-122 966.0716,-122 966.0716,-86 1127.9284,-86 1127.9284,-122"/>
<text text-anchor="middle" x="1047" y="-99.8" font-family="Times,serif" font-size="14.00" fill="#000000">AddPrestationComponent</text>
</g>
<!-- PrestationModule -->
<g id="node6" class="node">
<title>PrestationModule</title>
<polygon fill="#8dd3c7" stroke="#000000" points="617.5395,-187 614.5395,-191 593.5395,-191 590.5395,-187 502.4605,-187 502.4605,-151 617.5395,-151 617.5395,-187"/>
<text text-anchor="middle" x="560" y="-164.8" font-family="Times,serif" font-size="14.00" fill="#000000">PrestationModule</text>
</g>
<!-- AddPrestationComponent&#45;&gt;PrestationModule -->
<g id="edge1" class="edge">
<title>AddPrestationComponent&#45;&gt;PrestationModule</title>
<path fill="none" stroke="#000000" d="M1047,-122.2921C1047,-144.2057 1047,-178 1047,-178 1047,-178 627.7777,-178 627.7777,-178"/>
<polygon fill="#000000" stroke="#000000" points="627.7777,-174.5001 617.7777,-178 627.7777,-181.5001 627.7777,-174.5001"/>
</g>
<!-- FormComponent -->
<g id="node2" class="node">
<title>FormComponent</title>
<polygon fill="#ffffb3" stroke="#000000" points="947.6667,-122 836.3333,-122 836.3333,-86 947.6667,-86 947.6667,-122"/>
<text text-anchor="middle" x="892" y="-99.8" font-family="Times,serif" font-size="14.00" fill="#000000">FormComponent</text>
</g>
<!-- FormComponent&#45;&gt;PrestationModule -->
<g id="edge2" class="edge">
<title>FormComponent&#45;&gt;PrestationModule</title>
<path fill="none" stroke="#000000" d="M892,-122.1061C892,-141.3391 892,-169 892,-169 892,-169 627.83,-169 627.83,-169"/>
<polygon fill="#000000" stroke="#000000" points="627.83,-165.5001 617.83,-169 627.83,-172.5001 627.83,-165.5001"/>
</g>
<!-- FormReactiveComponent -->
<g id="node3" class="node">
<title>FormReactiveComponent</title>
<polygon fill="#ffffb3" stroke="#000000" points="818.1428,-122 657.8572,-122 657.8572,-86 818.1428,-86 818.1428,-122"/>
<text text-anchor="middle" x="738" y="-99.8" font-family="Times,serif" font-size="14.00" fill="#000000">FormReactiveComponent</text>
</g>
<!-- FormReactiveComponent&#45;&gt;PrestationModule -->
<g id="edge3" class="edge">
<title>FormReactiveComponent&#45;&gt;PrestationModule</title>
<path fill="none" stroke="#000000" d="M738,-122.027C738,-138.3976 738,-160 738,-160 738,-160 627.7915,-160 627.7915,-160"/>
<polygon fill="#000000" stroke="#000000" points="627.7915,-156.5001 617.7915,-160 627.7915,-163.5001 627.7915,-156.5001"/>
</g>
<!-- ListPrestationComponent -->
<g id="node4" class="node">
<title>ListPrestationComponent</title>
<polygon fill="#ffffb3" stroke="#000000" points="639.5996,-122 480.4004,-122 480.4004,-86 639.5996,-86 639.5996,-122"/>
<text text-anchor="middle" x="560" y="-99.8" font-family="Times,serif" font-size="14.00" fill="#000000">ListPrestationComponent</text>
</g>
<!-- ListPrestationComponent&#45;&gt;PrestationModule -->
<g id="edge4" class="edge">
<title>ListPrestationComponent&#45;&gt;PrestationModule</title>
<path fill="none" stroke="#000000" d="M560,-122.1061C560,-122.1061 560,-140.991 560,-140.991"/>
<polygon fill="#000000" stroke="#000000" points="556.5001,-140.9909 560,-150.991 563.5001,-140.991 556.5001,-140.9909"/>
</g>
<!-- PrestationComponent -->
<g id="node5" class="node">
<title>PrestationComponent</title>
<polygon fill="#ffffb3" stroke="#000000" points="462.8216,-122 325.1784,-122 325.1784,-86 462.8216,-86 462.8216,-122"/>
<text text-anchor="middle" x="394" y="-99.8" font-family="Times,serif" font-size="14.00" fill="#000000">PrestationComponent</text>
</g>
<!-- PrestationComponent&#45;&gt;PrestationModule -->
<g id="edge5" class="edge">
<title>PrestationComponent&#45;&gt;PrestationModule</title>
<path fill="none" stroke="#000000" d="M394,-122.027C394,-138.3976 394,-160 394,-160 394,-160 492.4071,-160 492.4071,-160"/>
<polygon fill="#000000" stroke="#000000" points="492.4072,-163.5001 502.4071,-160 492.4071,-156.5001 492.4072,-163.5001"/>
</g>
<!-- PrestationRoutingModule -->
<g id="node7" class="node">
<title>PrestationRoutingModule</title>
<polygon fill="#8dd3c7" stroke="#000000" points="301.1568,-122 298.1568,-126 277.1568,-126 274.1568,-122 140.8432,-122 140.8432,-86 301.1568,-86 301.1568,-122"/>
<text text-anchor="middle" x="221" y="-99.8" font-family="Times,serif" font-size="14.00" fill="#000000">PrestationRoutingModule</text>
</g>
<!-- PrestationRoutingModule&#45;&gt;PrestationModule -->
<g id="edge6" class="edge">
<title>PrestationRoutingModule&#45;&gt;PrestationModule</title>
<path fill="none" stroke="#000000" d="M221,-122.1061C221,-141.3391 221,-169 221,-169 221,-169 492.109,-169 492.109,-169"/>
<polygon fill="#000000" stroke="#000000" points="492.109,-172.5001 502.109,-169 492.109,-165.5001 492.109,-172.5001"/>
</g>
<!-- SharedModule -->
<g id="node8" class="node">
<title>SharedModule</title>
<polygon fill="#8dd3c7" stroke="#000000" points="122.4231,-122 119.4231,-126 98.4231,-126 95.4231,-122 23.5769,-122 23.5769,-86 122.4231,-86 122.4231,-122"/>
<text text-anchor="middle" x="73" y="-99.8" font-family="Times,serif" font-size="14.00" fill="#000000">SharedModule</text>
</g>
<!-- SharedModule&#45;&gt;PrestationModule -->
<g id="edge7" class="edge">
<title>SharedModule&#45;&gt;PrestationModule</title>
<path fill="none" stroke="#000000" d="M73,-122.2921C73,-144.2057 73,-178 73,-178 73,-178 492.2223,-178 492.2223,-178"/>
<polygon fill="#000000" stroke="#000000" points="492.2223,-181.5001 502.2223,-178 492.2223,-174.5001 492.2223,-181.5001"/>
</g>
</g>
</svg>
