<?xml version="1.0" encoding="UTF-8" standalone="no"?>
<!DOCTYPE svg PUBLIC "-//W3C//DTD SVG 1.1//EN"
 "http://www.w3.org/Graphics/SVG/1.1/DTD/svg11.dtd">
<!-- Generated by graphviz version 2.40.1 (20161225.0304)
 -->
<!-- Title: dependencies Pages: 1 -->
<svg width="542pt" height="284pt"
 viewBox="0.00 0.00 542.00 284.00" xmlns="http://www.w3.org/2000/svg" xmlns:xlink="http://www.w3.org/1999/xlink">
<g id="graph0" class="graph" transform="scale(1 1) rotate(0) translate(4 280)">
<title>dependencies</title>
<polygon fill="#ffffff" stroke="transparent" points="-4,4 -4,-280 538,-280 538,4 -4,4"/>
<text text-anchor="start" x="246.0091" y="-42.4" font-family="sans-serif" font-weight="bold" font-size="14.00" fill="#000000">Legend</text>
<polygon fill="#ffffb3" stroke="transparent" points="33,-10 33,-30 53,-30 53,-10 33,-10"/>
<text text-anchor="start" x="56.629" y="-15.4" font-family="sans-serif" font-size="14.00" fill="#000000"> &#160;Declarations</text>
<polygon fill="#8dd3c7" stroke="transparent" points="146,-10 146,-30 166,-30 166,-10 146,-10"/>
<text text-anchor="start" x="169.7251" y="-15.4" font-family="sans-serif" font-size="14.00" fill="#000000"> &#160;Module</text>
<polygon fill="#80b1d3" stroke="transparent" points="232,-10 232,-30 252,-30 252,-10 232,-10"/>
<text text-anchor="start" x="255.7812" y="-15.4" font-family="sans-serif" font-size="14.00" fill="#000000"> &#160;Bootstrap</text>
<polygon fill="#fdb462" stroke="transparent" points="329,-10 329,-30 349,-30 349,-10 329,-10"/>
<text text-anchor="start" x="352.6732" y="-15.4" font-family="sans-serif" font-size="14.00" fill="#000000"> &#160;Providers</text>
<polygon fill="#fb8072" stroke="transparent" points="425,-10 425,-30 445,-30 445,-10 425,-10"/>
<text text-anchor="start" x="448.7258" y="-15.4" font-family="sans-serif" font-size="14.00" fill="#000000"> &#160;Exports</text>
<g id="clust1" class="cluster">
<title>cluster_SharedModule</title>
<polygon fill="none" stroke="#000000" stroke-dasharray="1,5" points="8,-70 8,-268 526,-268 526,-70 8,-70"/>
</g>
<g id="clust2" class="cluster">
<title>cluster_SharedModule_declarations</title>
<polygon fill="none" stroke="#000000" points="25,-78 25,-130 511,-130 511,-78 25,-78"/>
</g>
<g id="clust8" class="cluster">
<title>cluster_SharedModule_exports</title>
<polygon fill="none" stroke="#000000" points="16,-208 16,-260 518,-260 518,-208 16,-208"/>
</g>
<!-- LocalCurrencyPipe -->
<g id="node1" class="node">
<title>LocalCurrencyPipe</title>
<polygon fill="#ffffb3" stroke="#000000" points="503.3473,-122 378.6527,-122 378.6527,-86 503.3473,-86 503.3473,-122"/>
<text text-anchor="middle" x="441" y="-99.8" font-family="Times,serif" font-size="14.00" fill="#000000">LocalCurrencyPipe</text>
</g>
<!-- SharedModule -->
<g id="node5" class="node">
<title>SharedModule</title>
<polygon fill="#8dd3c7" stroke="#000000" points="236.4231,-187 233.4231,-191 212.4231,-191 209.4231,-187 137.5769,-187 137.5769,-151 236.4231,-151 236.4231,-187"/>
<text text-anchor="middle" x="187" y="-164.8" font-family="Times,serif" font-size="14.00" fill="#000000">SharedModule</text>
</g>
<!-- LocalCurrencyPipe&#45;&gt;SharedModule -->
<g id="edge1" class="edge">
<title>LocalCurrencyPipe&#45;&gt;SharedModule</title>
<path fill="none" stroke="#000000" d="M462.8912,-122.2667C462.8912,-140.5552 462.8912,-166 462.8912,-166 462.8912,-166 246.3238,-166 246.3238,-166"/>
<polygon fill="#000000" stroke="#000000" points="246.3239,-162.5001 236.3238,-166 246.3238,-169.5001 246.3239,-162.5001"/>
</g>
<!-- StateDirective -->
<g id="node2" class="node">
<title>StateDirective</title>
<polygon fill="#ffffb3" stroke="#000000" points="361.0758,-122 264.9242,-122 264.9242,-86 361.0758,-86 361.0758,-122"/>
<text text-anchor="middle" x="313" y="-99.8" font-family="Times,serif" font-size="14.00" fill="#000000">StateDirective</text>
</g>
<!-- StateDirective&#45;&gt;SharedModule -->
<g id="edge2" class="edge">
<title>StateDirective&#45;&gt;SharedModule</title>
<path fill="none" stroke="#000000" d="M329.0126,-122.0091C329.0126,-138.0494 329.0126,-159 329.0126,-159 329.0126,-159 246.2706,-159 246.2706,-159"/>
<polygon fill="#000000" stroke="#000000" points="246.2706,-155.5001 236.2706,-159 246.2705,-162.5001 246.2706,-155.5001"/>
</g>
<!-- TableauComponent -->
<g id="node3" class="node">
<title>TableauComponent</title>
<polygon fill="#ffffb3" stroke="#000000" points="247.4201,-122 120.5799,-122 120.5799,-86 247.4201,-86 247.4201,-122"/>
<text text-anchor="middle" x="184" y="-99.8" font-family="Times,serif" font-size="14.00" fill="#000000">TableauComponent</text>
</g>
<!-- TableauComponent&#45;&gt;SharedModule -->
<g id="edge3" class="edge">
<title>TableauComponent&#45;&gt;SharedModule</title>
<path fill="none" stroke="#000000" d="M187,-122.1061C187,-122.1061 187,-140.991 187,-140.991"/>
<polygon fill="#000000" stroke="#000000" points="183.5001,-140.9909 187,-150.991 190.5001,-140.991 183.5001,-140.9909"/>
</g>
<!-- TotalPipe -->
<g id="node4" class="node">
<title>TotalPipe</title>
<polygon fill="#ffffb3" stroke="#000000" points="103.4376,-122 32.5624,-122 32.5624,-86 103.4376,-86 103.4376,-122"/>
<text text-anchor="middle" x="68" y="-99.8" font-family="Times,serif" font-size="14.00" fill="#000000">TotalPipe</text>
</g>
<!-- TotalPipe&#45;&gt;SharedModule -->
<g id="edge4" class="edge">
<title>TotalPipe&#45;&gt;SharedModule</title>
<path fill="none" stroke="#000000" d="M76.2394,-122.0225C76.2394,-139.3734 76.2394,-163 76.2394,-163 76.2394,-163 127.7737,-163 127.7737,-163"/>
<polygon fill="#000000" stroke="#000000" points="127.7738,-166.5001 137.7737,-163 127.7737,-159.5001 127.7738,-166.5001"/>
</g>
<!-- LocalCurrencyPipe  -->
<g id="node6" class="node">
<title>LocalCurrencyPipe </title>
<polygon fill="#fb8072" stroke="#000000" points="510.3477,-252 381.6523,-252 381.6523,-216 510.3477,-216 510.3477,-252"/>
<text text-anchor="middle" x="446" y="-229.8" font-family="Times,serif" font-size="14.00" fill="#000000">LocalCurrencyPipe </text>
</g>
<!-- SharedModule&#45;&gt;LocalCurrencyPipe  -->
<g id="edge5" class="edge">
<title>SharedModule&#45;&gt;LocalCurrencyPipe </title>
<path fill="none" stroke="#000000" stroke-dasharray="5,2" d="M236.3389,-173C305.3537,-173 422.3588,-173 422.3588,-173 422.3588,-173 422.3588,-205.698 422.3588,-205.698"/>
<polygon fill="#000000" stroke="#000000" points="418.8589,-205.698 422.3588,-215.698 425.8589,-205.698 418.8589,-205.698"/>
</g>
<!-- StateDirective  -->
<g id="node7" class="node">
<title>StateDirective </title>
<polygon fill="#fb8072" stroke="#000000" points="363.5767,-252 264.4233,-252 264.4233,-216 363.5767,-216 363.5767,-252"/>
<text text-anchor="middle" x="314" y="-229.8" font-family="Times,serif" font-size="14.00" fill="#000000">StateDirective </text>
</g>
<!-- SharedModule&#45;&gt;StateDirective  -->
<g id="edge6" class="edge">
<title>SharedModule&#45;&gt;StateDirective </title>
<path fill="none" stroke="#000000" stroke-dasharray="5,2" d="M236.5238,-180C265.7173,-180 296.9874,-180 296.9874,-180 296.9874,-180 296.9874,-205.7181 296.9874,-205.7181"/>
<polygon fill="#000000" stroke="#000000" points="293.4875,-205.718 296.9874,-215.7181 300.4875,-205.7181 293.4875,-205.718"/>
</g>
<!-- TableauComponent  -->
<g id="node8" class="node">
<title>TableauComponent </title>
<polygon fill="#fb8072" stroke="#000000" points="245.9194,-252 116.0806,-252 116.0806,-216 245.9194,-216 245.9194,-252"/>
<text text-anchor="middle" x="181" y="-229.8" font-family="Times,serif" font-size="14.00" fill="#000000">TableauComponent </text>
</g>
<!-- SharedModule&#45;&gt;TableauComponent  -->
<g id="edge7" class="edge">
<title>SharedModule&#45;&gt;TableauComponent </title>
<path fill="none" stroke="#000000" stroke-dasharray="5,2" d="M187,-187.1061C187,-187.1061 187,-205.991 187,-205.991"/>
<polygon fill="#000000" stroke="#000000" points="183.5001,-205.9909 187,-215.991 190.5001,-205.991 183.5001,-205.9909"/>
</g>
<!-- TotalPipe  -->
<g id="node9" class="node">
<title>TotalPipe </title>
<polygon fill="#fb8072" stroke="#000000" points="97.9362,-252 24.0638,-252 24.0638,-216 97.9362,-216 97.9362,-252"/>
<text text-anchor="middle" x="61" y="-229.8" font-family="Times,serif" font-size="14.00" fill="#000000">TotalPipe </text>
</g>
<!-- SharedModule&#45;&gt;TotalPipe  -->
<g id="edge8" class="edge">
<title>SharedModule&#45;&gt;TotalPipe </title>
<path fill="none" stroke="#000000" stroke-dasharray="5,2" d="M137.6658,-175C99.9972,-175 54.5106,-175 54.5106,-175 54.5106,-175 54.5106,-205.9775 54.5106,-205.9775"/>
<polygon fill="#000000" stroke="#000000" points="51.0107,-205.9774 54.5106,-215.9775 58.0107,-205.9775 51.0107,-205.9774"/>
</g>
</g>
</svg>
